<svg width="28" height="23" viewBox="0 0 28 23" fill="none" xmlns="http://www.w3.org/2000/svg">
<path d="M25.6725 13.5358L27.9705 4.19206C28.1364 3.51743 27.5815 2.875 26.8329 2.875H7.73928L7.29371 0.862051C7.18268 0.360318 6.70493 0 6.15072 0H1.16667C0.522327 0 0 0.482686 0 1.07812V1.79688C0 2.39231 0.522327 2.875 1.16667 2.875H4.56376L7.97859 18.3027C7.16163 18.7369 6.61111 19.551 6.61111 20.4844C6.61111 21.8737 7.82989 23 9.33334 23C10.8368 23 12.0556 21.8737 12.0556 20.4844C12.0556 19.7803 11.7422 19.1441 11.2377 18.6875H21.4289C20.9245 19.1441 20.6111 19.7803 20.6111 20.4844C20.6111 21.8737 21.8299 23 23.3333 23C24.8368 23 26.0556 21.8737 26.0556 20.4844C26.0556 19.4884 25.4291 18.6277 24.5205 18.2201L24.7887 17.1296C24.9546 16.4549 24.3997 15.8125 23.651 15.8125H10.6029L10.2848 14.375H24.5349C25.0796 14.375 25.5518 14.0267 25.6725 13.5358Z" fill="white"/>
</svg>
