<svg width="17" height="12" viewBox="0 0 17 12" fill="none" xmlns="http://www.w3.org/2000/svg">
<g clip-path="url(#clip0_385_230)">
<path d="M1.77692 0.946674C1.81255 0.946514 1.81255 0.946514 1.8489 0.946351C1.9281 0.946076 2.0073 0.946272 2.0865 0.946467C2.14401 0.946367 2.20153 0.946238 2.25904 0.946082C2.4168 0.945741 2.57456 0.945813 2.73231 0.945955C2.90257 0.946037 3.07282 0.945738 3.24307 0.945489C3.5765 0.945066 3.90992 0.945006 4.24335 0.945084C4.51437 0.945143 4.78539 0.945085 5.0564 0.944944C5.09498 0.944924 5.13355 0.944904 5.17329 0.944884C5.25164 0.944844 5.33 0.944803 5.40836 0.944763C6.14321 0.944402 6.87806 0.944474 7.61291 0.944676C8.28514 0.944848 8.95737 0.944474 9.62959 0.943843C10.3199 0.9432 11.0102 0.942925 11.7005 0.94305C12.088 0.943114 12.4756 0.943031 12.8631 0.942562C13.193 0.942166 13.5229 0.942119 13.8528 0.942521C14.0211 0.942717 14.1894 0.942753 14.3577 0.942355C14.5118 0.941995 14.6659 0.942097 14.8201 0.942563C14.8758 0.942651 14.9314 0.942572 14.9871 0.942306C15.3948 0.940496 15.7628 0.953396 16.0715 1.25317C16.335 1.53144 16.3841 1.76915 16.382 2.14244C16.3823 2.20063 16.3823 2.20063 16.3826 2.26C16.383 2.36709 16.3829 2.47418 16.3827 2.58128C16.3825 2.697 16.3829 2.81273 16.3833 2.92845C16.3838 3.15494 16.3839 3.38143 16.3837 3.60791C16.3836 3.79205 16.3836 3.97618 16.3838 4.16031C16.3838 4.18654 16.3838 4.21277 16.3839 4.2398C16.3839 4.2931 16.384 4.34639 16.384 4.39969C16.3845 4.89918 16.3843 5.39867 16.3839 5.89816C16.3836 6.35484 16.384 6.81152 16.3848 7.2682C16.3856 7.73747 16.3859 8.20674 16.3857 8.67602C16.3856 8.93934 16.3857 9.20266 16.3863 9.46598C16.3867 9.69013 16.3868 9.91427 16.3862 10.1384C16.3859 10.2527 16.3858 10.367 16.3863 10.4813C16.3868 10.6053 16.3864 10.7294 16.3858 10.8534C16.3861 10.8893 16.3864 10.9252 16.3868 10.9622C16.3836 11.2844 16.2874 11.5179 16.0676 11.7531C15.8225 11.9818 15.5543 12.0532 15.2231 12.0534C15.1994 12.0535 15.1756 12.0536 15.1512 12.0537C15.072 12.054 14.9928 12.0538 14.9136 12.0536C14.856 12.0537 14.7985 12.0539 14.741 12.054C14.5833 12.0543 14.4255 12.0543 14.2677 12.0541C14.0975 12.0541 13.9272 12.0544 13.757 12.0546C13.4236 12.055 13.0901 12.0551 12.7567 12.055C12.4857 12.0549 12.2147 12.055 11.9437 12.0551C11.9051 12.0552 11.8665 12.0552 11.8268 12.0552C11.7484 12.0552 11.6701 12.0553 11.5917 12.0553C10.8568 12.0557 10.122 12.0556 9.38715 12.0554C8.71492 12.0552 8.04269 12.0556 7.37047 12.0562C6.68016 12.0569 5.98986 12.0572 5.29956 12.057C4.91203 12.057 4.5245 12.0571 4.13698 12.0575C3.80707 12.0579 3.47718 12.058 3.14727 12.0576C2.97898 12.0574 2.81069 12.0573 2.6424 12.0577C2.48826 12.0581 2.33413 12.058 2.17999 12.0575C2.12431 12.0574 2.06863 12.0575 2.01295 12.0578C1.6053 12.0596 1.23721 12.0467 0.92855 11.7469C0.665109 11.4687 0.615946 11.2309 0.618017 10.8577C0.617838 10.8189 0.617659 10.7801 0.617475 10.7401C0.617084 10.633 0.617136 10.5259 0.617381 10.4188C0.617539 10.3031 0.617122 10.1874 0.616783 10.0716C0.616213 9.84515 0.616184 9.61866 0.616358 9.39217C0.616493 9.20804 0.616444 9.02391 0.616267 8.83978C0.616242 8.81355 0.616217 8.78732 0.616192 8.76029C0.616141 8.70699 0.61609 8.6537 0.616039 8.6004C0.615583 8.10091 0.615763 7.60142 0.616144 7.10193C0.616474 6.64525 0.616044 6.18857 0.61525 5.73189C0.61444 5.26262 0.614121 4.79335 0.614342 4.32407C0.614458 4.06075 0.614384 3.79743 0.613802 3.53411C0.613313 3.30996 0.613293 3.08582 0.613871 2.86167C0.614154 2.74738 0.614225 2.6331 0.613717 2.51881C0.613279 2.39475 0.613661 2.27071 0.614248 2.14665C0.613929 2.11076 0.61361 2.07486 0.613281 2.03788C0.616414 1.71567 0.712671 1.48218 0.932441 1.24695C1.17755 1.01831 1.4458 0.9469 1.77692 0.946674ZM1.2598 1.61361C1.23714 1.64616 1.23714 1.64616 1.21402 1.67937C1.19046 1.71153 1.19046 1.71153 1.16642 1.74435C1.06832 1.93817 1.09097 2.16834 1.09129 2.38013C1.09122 2.41672 1.09114 2.45332 1.09107 2.49102C1.09086 2.61367 1.09088 2.73632 1.09091 2.85897C1.09081 2.94689 1.0907 3.03481 1.09057 3.12273C1.0903 3.33679 1.0902 3.55084 1.09019 3.7649C1.09017 3.93892 1.0901 4.11294 1.09 4.28695C1.0897 4.78052 1.08955 5.27409 1.08958 5.76766C1.08958 5.79426 1.08958 5.82085 1.08958 5.84826C1.08958 5.87488 1.08958 5.90151 1.08958 5.92895C1.0896 6.36053 1.08928 6.79212 1.08881 7.22371C1.08834 7.66705 1.08811 8.11039 1.08813 8.55374C1.08815 8.80257 1.08805 9.05139 1.0877 9.30022C1.08739 9.51206 1.08732 9.7239 1.08755 9.93574C1.08766 10.0438 1.08762 10.1518 1.08737 10.2598C1.08711 10.3771 1.08727 10.4943 1.08752 10.6115C1.08735 10.6455 1.08718 10.6795 1.08701 10.7145C1.08815 10.9509 1.10185 11.1541 1.2327 11.3581C1.44107 11.5529 1.66807 11.5612 1.9393 11.5566C1.98738 11.5564 1.98738 11.5564 2.03642 11.5562C2.13791 11.5557 2.23937 11.5544 2.34085 11.5531C2.41002 11.5526 2.4792 11.5522 2.54837 11.5518C2.71716 11.5507 2.88594 11.549 3.05472 11.5469C3.11089 11.423 3.167 11.2991 3.22307 11.1752C3.24364 11.1297 3.26421 11.0843 3.28479 11.0388C3.41294 10.7557 3.53995 10.4722 3.66521 10.1878C3.68927 10.1333 3.71333 10.0787 3.73739 10.0242C3.77261 9.94437 3.80777 9.8645 3.84273 9.78455C3.87541 9.70982 3.9083 9.63519 3.94121 9.56057C3.95085 9.53837 3.96048 9.51618 3.9704 9.49331C4.02009 9.38118 4.06721 9.2801 4.15042 9.1895C4.21838 9.1727 4.21838 9.1727 4.29807 9.17241C4.32847 9.17199 4.35887 9.17156 4.39019 9.17112C4.42363 9.17132 4.45708 9.17153 4.49154 9.17174C4.52703 9.17144 4.56252 9.17114 4.59909 9.17083C4.71862 9.16998 4.83812 9.1701 4.95766 9.1702C5.04311 9.16981 5.12856 9.16936 5.21401 9.16885C5.42238 9.16775 5.63076 9.16739 5.83914 9.16731C6.00849 9.16725 6.17784 9.16698 6.34719 9.16655C6.82716 9.16538 7.30712 9.16477 7.78708 9.16487C7.81297 9.16488 7.83885 9.16488 7.86552 9.16489C7.9044 9.1649 7.9044 9.1649 7.94406 9.1649C8.36413 9.16496 8.78419 9.16369 9.20426 9.16181C9.6354 9.15991 10.0665 9.15899 10.4977 9.1591C10.7398 9.15915 10.9819 9.15878 11.2241 9.15735C11.4518 9.15602 11.6794 9.15606 11.9071 9.15702C11.9907 9.15716 12.0744 9.15685 12.1581 9.15605C12.2721 9.15503 12.386 9.15563 12.5001 9.15666C12.5334 9.15598 12.5667 9.1553 12.601 9.15459C12.8199 9.15896 12.8199 9.15897 12.9065 9.24785C12.9495 9.31547 12.9838 9.38166 13.0157 9.45512C13.03 9.48306 13.0443 9.51099 13.059 9.53977C13.075 9.57599 13.075 9.57599 13.0912 9.61295C13.1037 9.64092 13.1161 9.66888 13.1289 9.69769C13.1417 9.72713 13.1546 9.75657 13.1678 9.7869C13.1886 9.83395 13.1886 9.83395 13.2098 9.88196C13.2539 9.9817 13.2977 10.0816 13.3415 10.1814C13.3704 10.2472 13.3994 10.3129 13.4284 10.3786C13.4851 10.5071 13.5417 10.6356 13.5982 10.7642C13.7131 11.0254 13.8292 11.2862 13.9453 11.5469C14.1491 11.5494 14.3529 11.5512 14.5568 11.5524C14.626 11.5529 14.6953 11.5536 14.7646 11.5544C14.8644 11.5556 14.9642 11.5562 15.064 11.5566C15.1101 11.5574 15.1101 11.5574 15.1572 11.5582C15.3884 11.5583 15.5433 11.521 15.73 11.3768C15.9093 11.1476 15.9188 10.8893 15.9168 10.608C15.9169 10.5713 15.917 10.5346 15.9172 10.4968C15.9175 10.3745 15.9171 10.2522 15.9167 10.1298C15.9168 10.0419 15.9169 9.95394 15.9171 9.86601C15.9174 9.6523 15.9172 9.43859 15.9167 9.22488C15.9163 8.97582 15.9164 8.72676 15.9164 8.47771C15.9165 8.03324 15.9161 7.58878 15.9155 7.14432C15.9149 6.71336 15.9146 6.2824 15.9148 5.85144C15.915 5.38173 15.915 4.91201 15.9146 4.4423C15.9146 4.39219 15.9145 4.34207 15.9145 4.29196C15.9145 4.26731 15.9145 4.24265 15.9144 4.21725C15.9143 4.04378 15.9143 3.8703 15.9144 3.69683C15.9145 3.48535 15.9143 3.27388 15.9138 3.06241C15.9136 2.95458 15.9135 2.84675 15.9136 2.73892C15.9137 2.62191 15.9134 2.50491 15.913 2.38789C15.9131 2.35399 15.9132 2.32009 15.9134 2.28515C15.9119 2.04898 15.898 1.84572 15.7674 1.64201C15.5095 1.40101 15.1814 1.43908 14.8517 1.44052C14.7947 1.44041 14.7377 1.44025 14.6807 1.44005C14.5243 1.43963 14.368 1.43984 14.2116 1.44015C14.0428 1.44037 13.8741 1.44003 13.7053 1.43975C13.3748 1.43931 13.0444 1.4394 12.7139 1.43969C12.4453 1.43992 12.1767 1.43995 11.9082 1.43984C11.8699 1.43983 11.8317 1.43981 11.7923 1.43979C11.7147 1.43976 11.637 1.43973 11.5594 1.4397C10.8313 1.43941 10.1031 1.43974 9.37499 1.44028C8.75018 1.44072 8.12537 1.44064 7.50056 1.44018C6.77504 1.43965 6.04951 1.43944 5.32399 1.43975C5.24663 1.43978 5.16926 1.43981 5.0919 1.43984C5.05384 1.43986 5.01578 1.43987 4.97656 1.43989C4.70829 1.43997 4.44003 1.43983 4.17176 1.43959C3.84485 1.43931 3.51794 1.43939 3.19103 1.43992C3.02422 1.44018 2.85742 1.44028 2.69062 1.43996C2.53791 1.43966 2.38522 1.43982 2.23251 1.44035C2.17728 1.44046 2.12205 1.44041 2.06682 1.44016C1.63461 1.42571 1.63461 1.42571 1.2598 1.61361ZM4.41605 9.65434C4.20786 10.1255 3.99968 10.5966 3.78519 11.0821C3.7304 11.2026 3.67562 11.3231 3.61917 11.4473C3.61917 11.4802 3.61917 11.5131 3.61917 11.5469C6.84054 11.5469 10.0619 11.5469 13.3809 11.5469C13.3561 11.423 13.3345 11.3399 13.2845 11.2286C13.2716 11.1994 13.2586 11.1703 13.2452 11.1403C13.2312 11.1092 13.2171 11.0781 13.2027 11.046C13.1882 11.0136 13.1738 10.9813 13.1589 10.9479C13.1127 10.8445 13.0662 10.7413 13.0198 10.638C12.9737 10.5349 12.9275 10.4319 12.8814 10.3288C12.8528 10.2647 12.8241 10.2007 12.7953 10.1366C12.7821 10.1073 12.7689 10.0779 12.7554 10.0477C12.7382 10.0094 12.7382 10.0094 12.7206 9.97032C12.6742 9.86539 12.6292 9.75981 12.584 9.65434C9.88858 9.65434 7.19315 9.65434 4.41605 9.65434Z" fill="#3E01FF"/>
<path d="M2.57308 2.14192C2.63762 2.14163 2.63762 2.14163 2.70347 2.14133C2.75098 2.14145 2.7985 2.14158 2.84601 2.14171C2.89667 2.14161 2.94732 2.14148 2.99798 2.14133C3.13709 2.14098 3.27619 2.14106 3.4153 2.1412C3.56537 2.14128 3.71543 2.14098 3.86549 2.14073C4.15944 2.14031 4.4534 2.14025 4.74735 2.14033C4.98627 2.14039 5.22519 2.14033 5.4641 2.14019C5.51509 2.14016 5.51509 2.14016 5.56711 2.14013C5.63616 2.14009 5.70522 2.14005 5.77427 2.14001C6.422 2.13964 7.06973 2.13972 7.71745 2.13992C8.31007 2.14009 8.90269 2.13972 9.49531 2.13909C10.1037 2.13844 10.7122 2.13817 11.3206 2.13829C11.6622 2.13836 12.0038 2.13827 12.3455 2.1378C12.6363 2.13741 12.9271 2.13736 13.2179 2.13776C13.3663 2.13796 13.5147 2.138 13.6631 2.1376C13.7989 2.13724 13.9348 2.13734 14.0707 2.13781C14.1198 2.13789 14.1689 2.13781 14.218 2.13755C14.7752 2.13475 14.7752 2.13475 14.9838 2.31547C15.002 2.33837 15.0202 2.36127 15.039 2.38486C15.0578 2.40785 15.0765 2.43083 15.0959 2.45451C15.1817 2.57167 15.1782 2.65079 15.1787 2.79538C15.1789 2.81753 15.179 2.83968 15.1791 2.86251C15.1795 2.93709 15.1796 3.01167 15.1797 3.08625C15.1799 3.13958 15.1802 3.19292 15.1804 3.24625C15.181 3.39141 15.1813 3.53658 15.1816 3.68175C15.1818 3.77242 15.182 3.86309 15.1822 3.95376C15.1828 4.23738 15.1833 4.521 15.1836 4.80461C15.1839 5.13213 15.1848 5.45964 15.1861 5.78715C15.1871 6.04021 15.1876 6.29325 15.1877 6.54631C15.1878 6.69749 15.1881 6.84866 15.1889 6.99984C15.1897 7.1421 15.1898 7.28435 15.1895 7.42661C15.1895 7.47879 15.1897 7.53096 15.1901 7.58313C15.1907 7.65446 15.1905 7.72575 15.1901 7.79708C15.1901 7.83697 15.1902 7.87686 15.1903 7.91795C15.1637 8.09499 15.0723 8.19669 14.9456 8.31785C14.7783 8.4383 14.6308 8.46725 14.427 8.46741C14.3839 8.4676 14.3409 8.4678 14.2966 8.468C14.2491 8.46788 14.2016 8.46775 14.154 8.46762C14.1034 8.46772 14.0527 8.46785 14.0021 8.468C13.863 8.46834 13.7239 8.46827 13.5848 8.46813C13.4347 8.46805 13.2846 8.46834 13.1346 8.46859C12.8406 8.46902 12.5467 8.46908 12.2527 8.469C12.0138 8.46894 11.7749 8.469 11.536 8.46914C11.485 8.46917 11.485 8.46917 11.4329 8.4692C11.3639 8.46924 11.2948 8.46928 11.2258 8.46932C10.5781 8.46968 9.93033 8.46961 9.2826 8.46941C8.68998 8.46924 8.09736 8.46961 7.50475 8.47024C6.89631 8.47088 6.28788 8.47116 5.67945 8.47103C5.33784 8.47097 4.99622 8.47105 4.65461 8.47152C4.36378 8.47192 4.07296 8.47196 3.78213 8.47156C3.63375 8.47137 3.48538 8.47133 3.337 8.47173C3.20113 8.47209 3.06527 8.47199 2.92939 8.47152C2.88028 8.47143 2.83117 8.47151 2.78206 8.47178C2.22485 8.47458 2.22485 8.47458 2.01621 8.29385C1.99802 8.27095 1.97983 8.24806 1.96109 8.22446C1.9423 8.20148 1.92351 8.17849 1.90415 8.15481C1.81833 8.03765 1.82183 7.95853 1.82131 7.81395C1.82119 7.7918 1.82107 7.76964 1.82094 7.74682C1.82058 7.67224 1.82045 7.59766 1.82032 7.52308C1.82012 7.46974 1.81989 7.41641 1.81966 7.36308C1.81908 7.21791 1.81873 7.07275 1.81846 6.92758C1.81829 6.83691 1.81809 6.74624 1.81788 6.65557C1.81725 6.37195 1.81677 6.08833 1.8165 5.80471C1.81617 5.47719 1.8153 5.14969 1.81396 4.82217C1.81296 4.56912 1.81246 4.31607 1.81235 4.06302C1.81228 3.91184 1.81198 3.76067 1.81114 3.60949C1.81037 3.46723 1.81023 3.32498 1.81057 3.18271C1.81059 3.13054 1.81038 3.07837 1.80992 3.02619C1.80933 2.95486 1.80957 2.88358 1.81001 2.81224C1.80993 2.77236 1.80985 2.73247 1.80977 2.69138C1.83637 2.51434 1.92781 2.41264 2.05447 2.29148C2.22176 2.17103 2.36923 2.14207 2.57308 2.14192ZM2.32425 2.71482C2.28828 2.82271 2.28678 2.90106 2.2866 3.01459C2.28646 3.05644 2.28632 3.09829 2.28618 3.14141C2.28619 3.18788 2.2862 3.23435 2.28622 3.28082C2.28612 3.32969 2.28601 3.37855 2.28588 3.42742C2.28559 3.56023 2.28551 3.69304 2.28549 3.82586C2.28546 3.93667 2.28534 4.04749 2.28522 4.15831C2.28495 4.41972 2.28487 4.68113 2.28489 4.94253C2.28491 5.21233 2.28456 5.48213 2.28404 5.75193C2.2836 5.98347 2.28342 6.21501 2.28345 6.44654C2.28345 6.58487 2.28336 6.72321 2.28301 6.86154C2.28269 6.99162 2.28268 7.12169 2.28293 7.25177C2.28296 7.29953 2.28288 7.34728 2.28268 7.39504C2.28243 7.4602 2.28262 7.52536 2.28284 7.59052C2.28282 7.62699 2.2828 7.66347 2.28278 7.70105C2.29105 7.79499 2.30575 7.84954 2.35745 7.92771C2.4482 7.97309 2.51989 7.96512 2.62154 7.96518C2.68514 7.96534 2.68514 7.96534 2.75003 7.96551C2.79753 7.96546 2.84502 7.96541 2.89252 7.96535C2.94263 7.96541 2.99275 7.96549 3.04286 7.96558C3.18107 7.96578 3.31929 7.96578 3.4575 7.96574C3.60636 7.96573 3.75522 7.96592 3.90408 7.96607C4.19591 7.96635 4.48774 7.96644 4.77958 7.96646C5.01668 7.96648 5.25378 7.96654 5.49088 7.96665C6.16246 7.96694 6.83405 7.96709 7.50563 7.96707C7.55998 7.96707 7.55998 7.96707 7.61544 7.96707C7.65172 7.96706 7.68799 7.96706 7.72537 7.96706C8.3136 7.96705 8.90183 7.96737 9.49007 7.96783C10.0934 7.96831 10.6968 7.96854 11.3001 7.96851C11.6391 7.9685 11.9781 7.96859 12.3171 7.96895C12.6057 7.96925 12.8943 7.96932 13.1829 7.9691C13.3302 7.96899 13.4776 7.96899 13.6249 7.96928C13.7597 7.96954 13.8944 7.96949 14.0291 7.9692C14.078 7.96915 14.1269 7.96921 14.1758 7.96939C14.242 7.96963 14.3082 7.96941 14.3743 7.96918C14.4112 7.96918 14.448 7.96919 14.486 7.9692C14.5835 7.96746 14.5835 7.96746 14.6758 7.89451C14.7118 7.78662 14.7133 7.70826 14.7135 7.59473C14.7136 7.55288 14.7137 7.51103 14.7139 7.46791C14.7139 7.42144 14.7139 7.37497 14.7138 7.32851C14.7139 7.27964 14.714 7.23077 14.7142 7.1819C14.7145 7.04909 14.7145 6.91628 14.7146 6.78347C14.7146 6.67265 14.7147 6.56183 14.7148 6.45102C14.7151 6.18961 14.7152 5.9282 14.7152 5.66679C14.7151 5.39699 14.7155 5.12719 14.716 4.85739C14.7165 4.62586 14.7166 4.39432 14.7166 4.16278C14.7166 4.02445 14.7167 3.88612 14.717 3.74779C14.7174 3.61771 14.7174 3.48764 14.7171 3.35756C14.7171 3.3098 14.7172 3.26204 14.7174 3.21429C14.7176 3.14913 14.7174 3.08397 14.7172 3.01881C14.7172 2.98233 14.7173 2.94586 14.7173 2.90827C14.709 2.81434 14.6943 2.75979 14.6426 2.68162C14.5519 2.63624 14.4802 2.64421 14.3785 2.64414C14.3149 2.64398 14.3149 2.64398 14.25 2.64382C14.2025 2.64387 14.155 2.64392 14.1075 2.64397C14.0574 2.64391 14.0073 2.64383 13.9572 2.64375C13.819 2.64354 13.6808 2.64355 13.5426 2.64359C13.3937 2.64359 13.2448 2.64341 13.096 2.64325C12.8041 2.64298 12.5123 2.64288 12.2205 2.64287C11.9834 2.64285 11.7463 2.64278 11.5092 2.64268C10.8376 2.64238 10.166 2.64223 9.49442 2.64226C9.44007 2.64226 9.44007 2.64226 9.38462 2.64226C9.34834 2.64226 9.31206 2.64226 9.27468 2.64226C8.68645 2.64228 8.09822 2.64196 7.50999 2.64149C6.90663 2.64102 6.30327 2.64079 5.69991 2.64081C5.36091 2.64083 5.02192 2.64073 4.68292 2.64038C4.39434 2.64008 4.10576 2.64 3.81717 2.64023C3.66982 2.64034 3.52248 2.64034 3.37513 2.64005C3.24039 2.63979 3.10565 2.63983 2.97091 2.64013C2.92202 2.64018 2.87313 2.64011 2.82425 2.63993C2.75807 2.6397 2.69189 2.63991 2.62572 2.64015C2.58887 2.64014 2.55203 2.64013 2.51407 2.64013C2.41655 2.64186 2.41655 2.64186 2.32425 2.71482Z" fill="#3E01FF"/>
<path d="M5.11534 3.20817C5.16029 3.20803 5.16029 3.20803 5.20615 3.20787C5.30639 3.20759 5.40662 3.20754 5.50686 3.20749C5.57881 3.20733 5.65076 3.20717 5.72271 3.20699C5.9181 3.20655 6.11349 3.20634 6.30888 3.20619C6.43105 3.20609 6.55323 3.20596 6.6754 3.20581C7.05796 3.20535 7.44052 3.20503 7.82308 3.2049C8.26412 3.20476 8.70515 3.20417 9.14619 3.20321C9.48745 3.20249 9.82871 3.20216 10.17 3.20211C10.3736 3.20208 10.5773 3.20188 10.7809 3.20129C10.9726 3.20074 11.1643 3.20067 11.3561 3.20096C11.4262 3.20099 11.4963 3.20085 11.5664 3.20052C12.2465 3.19751 12.835 3.28182 13.3457 3.77115C13.7855 4.20982 14.0049 4.71789 14.0117 5.33784C13.9772 5.94502 13.7491 6.46596 13.3077 6.88658C12.8883 7.23979 12.427 7.40165 11.8847 7.40109C11.8547 7.40119 11.8247 7.40129 11.7939 7.40139C11.6936 7.40168 11.5934 7.40173 11.4931 7.40178C11.4212 7.40193 11.3492 7.4021 11.2773 7.40228C11.0819 7.40272 10.8865 7.40293 10.6911 7.40308C10.5689 7.40317 10.4468 7.40331 10.3246 7.40346C9.94204 7.40391 9.55948 7.40423 9.17692 7.40436C8.73588 7.40451 8.29485 7.40509 7.85381 7.40606C7.51255 7.40677 7.17129 7.40711 6.83003 7.40715C6.62638 7.40719 6.42274 7.40738 6.2191 7.40798C6.02737 7.40853 5.83565 7.40859 5.64393 7.4083C5.57381 7.40828 5.50369 7.40842 5.43357 7.40875C4.75347 7.41176 4.16497 7.32744 3.65433 6.83812C3.21453 6.39944 2.99509 5.89137 2.98828 5.27143C3.02276 4.66425 3.25094 4.1433 3.69229 3.72269C4.11169 3.36948 4.57299 3.20761 5.11534 3.20817ZM4.11719 4.04291C4.09681 4.05751 4.07644 4.0721 4.05545 4.08714C3.77013 4.30618 3.58665 4.6567 3.51953 5.00581C3.46738 5.49506 3.54947 5.90429 3.85156 6.30073C3.87622 6.33497 3.90087 6.36921 3.92627 6.40449C4.20883 6.69989 4.57553 6.87487 4.98358 6.90629C5.46376 6.91676 5.87013 6.78565 6.22585 6.45598C6.53115 6.13506 6.69784 5.75056 6.71948 5.30463C6.69532 4.82647 6.49428 4.39912 6.14258 4.07612C5.53853 3.59949 4.72956 3.56435 4.11719 4.04291ZM6.47461 3.71088C6.54035 3.78758 6.60609 3.86428 6.67383 3.94331C7.04056 4.38654 7.20342 4.89863 7.17188 5.47065C7.12913 5.9158 6.97941 6.37033 6.65022 6.68749C6.59978 6.73004 6.60742 6.71577 6.52441 6.78217C6.47461 6.86518 6.50781 6.81538 6.47461 6.86518C6.47461 6.87614 6.47461 6.88709 6.47461 6.89838C7.81137 6.89838 9.14813 6.89838 10.5254 6.89838C10.5035 6.86551 10.4816 6.83264 10.459 6.79877C10.4371 6.79877 10.4152 6.79877 10.3926 6.79877C10.3835 6.77934 10.3745 6.75991 10.3652 6.73989C10.3268 6.66724 10.2843 6.60942 10.2328 6.5456C9.89938 6.10648 9.78514 5.58625 9.8372 5.04407C9.89391 4.63803 10.0409 4.29836 10.293 3.97651C10.3176 3.94432 10.3423 3.91214 10.3677 3.87897C10.4174 3.82039 10.4711 3.76521 10.5254 3.71088C9.18863 3.71088 7.85187 3.71088 6.47461 3.71088ZM10.6914 4.37495C10.4245 4.74265 10.3196 5.11837 10.3594 5.57026C10.4262 5.98151 10.6297 6.34089 10.957 6.59956C11.3676 6.8627 11.7444 6.97015 12.2322 6.87672C12.6635 6.7571 13.0065 6.52298 13.2399 6.13834C13.4564 5.73135 13.5008 5.34938 13.3801 4.90594C13.2471 4.49857 13.0077 4.19867 12.6291 3.99596C11.9429 3.66817 11.2088 3.80112 10.6914 4.37495Z" fill="#3E01FF"/>
<path d="M5.86659 4.22769C6.15258 4.4305 6.32094 4.7367 6.39784 5.07229C6.43818 5.45949 6.36542 5.79485 6.14311 6.11897C5.94386 6.36379 5.6574 6.53968 5.34572 6.59964C4.87443 6.6305 4.54983 6.54694 4.18556 6.24789C3.96139 6.04261 3.82862 5.77446 3.81046 5.47151C3.8036 5.18145 3.80262 4.93244 3.95119 4.67386C3.97105 4.63893 3.99091 4.60401 4.01137 4.56802C4.48343 3.96109 5.20713 3.8401 5.86659 4.22769ZM4.43328 4.83546C4.29443 5.04782 4.27972 5.25603 4.31642 5.50394C4.39066 5.75183 4.5247 5.90818 4.74806 6.03519C4.94334 6.12858 5.16207 6.14021 5.36751 6.07254C5.61322 5.96005 5.77496 5.81293 5.8749 5.55997C5.93666 5.34378 5.91316 5.13605 5.82302 4.93118C5.70917 4.72847 5.53614 4.59484 5.31589 4.52341C4.96871 4.44597 4.65429 4.55673 4.43328 4.83546Z" fill="#3E01FF"/>
<path d="M12.6068 4.20065C12.8951 4.40809 13.1045 4.65 13.1816 5.00583C13.2013 5.33444 13.2177 5.64158 13.0488 5.93552C13.029 5.97044 13.0091 6.00537 12.9886 6.04135C12.7671 6.32621 12.4886 6.54802 12.1191 6.59958C11.7193 6.62969 11.391 6.56432 11.0612 6.33045C10.7548 6.05884 10.6112 5.71862 10.5835 5.31711C10.5913 4.94408 10.7276 4.60082 10.9949 4.3384C11.4588 3.95722 12.0871 3.87343 12.6068 4.20065ZM11.2289 4.84176C11.0911 5.06699 11.063 5.28065 11.123 5.53708C11.1986 5.76695 11.3399 5.92166 11.5518 6.03629C11.7626 6.12656 11.9743 6.1346 12.1918 6.0621C12.4233 5.96195 12.549 5.82436 12.653 5.59713C12.7286 5.36683 12.7148 5.14801 12.6172 4.92697C12.5063 4.73151 12.3562 4.62406 12.1565 4.52854C11.7915 4.45554 11.4626 4.53437 11.2289 4.84176Z" fill="#3E01FF"/>
<path d="M6.91586 10.3389C6.95943 10.3385 6.95943 10.3385 7.00388 10.338C7.05155 10.3383 7.05155 10.3383 7.10017 10.3387C7.15047 10.3384 7.15047 10.3384 7.20179 10.3381C7.31289 10.3377 7.42396 10.338 7.53505 10.3383C7.61209 10.3382 7.68913 10.3382 7.76617 10.338C7.92773 10.3379 8.08928 10.3381 8.25084 10.3386C8.45818 10.3391 8.66552 10.3388 8.87287 10.3382C9.03198 10.3378 9.19109 10.338 9.3502 10.3382C9.42666 10.3383 9.50313 10.3382 9.57959 10.338C9.68636 10.3377 9.7931 10.3381 9.89987 10.3387C9.93164 10.3385 9.96342 10.3383 9.99616 10.338C10.0252 10.3383 10.0543 10.3386 10.0842 10.3389C10.122 10.339 10.122 10.339 10.1607 10.339C10.2445 10.355 10.2741 10.3849 10.3262 10.4512C10.3447 10.5409 10.3405 10.6264 10.3262 10.7168C10.2749 10.789 10.2386 10.8104 10.1602 10.8496C10.1159 10.8528 10.0714 10.8539 10.027 10.854C9.98528 10.8542 9.98528 10.8542 9.94268 10.8545C9.89678 10.8544 9.89678 10.8544 9.84995 10.8544C9.80168 10.8546 9.80168 10.8546 9.75243 10.8548C9.64564 10.8551 9.53884 10.8551 9.43204 10.8552C9.35801 10.8553 9.28398 10.8554 9.20996 10.8555C9.05459 10.8557 8.89923 10.8558 8.74387 10.8557C8.54461 10.8557 8.34534 10.8562 8.14608 10.8568C7.99312 10.8571 7.84016 10.8572 7.6872 10.8572C7.61373 10.8572 7.54026 10.8574 7.46679 10.8576C7.36408 10.858 7.26139 10.8579 7.15868 10.8577C7.11298 10.8579 7.11298 10.8579 7.06636 10.8582C7.03834 10.8581 7.01031 10.8579 6.98144 10.8578C6.94503 10.8578 6.94503 10.8578 6.90788 10.8579C6.82813 10.8482 6.77521 10.8253 6.70705 10.7832C6.65533 10.6797 6.6551 10.5639 6.67385 10.4512C6.74815 10.3563 6.79697 10.3391 6.91586 10.3389Z" fill="#3E01FF"/>
<path d="M12.1316 10.005C12.2959 10.0994 12.3921 10.2406 12.4512 10.4179C12.4764 10.641 12.4666 10.8096 12.3324 10.9939C12.2139 11.1316 12.0985 11.2109 11.9199 11.248C11.6975 11.2513 11.536 11.212 11.3555 11.082C11.2164 10.9391 11.1641 10.802 11.1459 10.6047C11.1652 10.3805 11.2191 10.2404 11.3887 10.088C11.5972 9.91457 11.8833 9.89429 12.1316 10.005ZM11.7539 10.4511C11.693 10.4954 11.693 10.4954 11.6543 10.5507C11.6777 10.6341 11.6777 10.6341 11.7207 10.7168C11.7831 10.7552 11.7831 10.7552 11.8535 10.75C11.9178 10.7161 11.9178 10.7161 11.9531 10.6503C11.9455 10.5622 11.9455 10.5622 11.9199 10.4843C11.842 10.4588 11.842 10.4588 11.7539 10.4511Z" fill="#3E01FF"/>
<path d="M5.4889 9.98836C5.66677 10.1166 5.79813 10.2653 5.84376 10.4843C5.86683 10.6882 5.81558 10.8429 5.71095 11.0156C5.59403 11.1547 5.45722 11.2184 5.2793 11.248C5.06723 11.2507 4.91344 11.2237 4.74805 11.082C4.58005 10.8953 4.53295 10.7604 4.53859 10.5116C4.55705 10.3429 4.61248 10.2153 4.73872 10.1003C4.96473 9.93222 5.21962 9.90199 5.4889 9.98836ZM5.11329 10.4511C5.09137 10.473 5.06946 10.495 5.04688 10.5175C5.05757 10.6204 5.05757 10.6204 5.08009 10.7168C5.13923 10.7454 5.13923 10.7454 5.2129 10.75C5.29314 10.6974 5.29314 10.6974 5.34571 10.6171C5.34118 10.5435 5.34118 10.5435 5.31251 10.4843C5.21619 10.4618 5.21619 10.4618 5.11329 10.4511Z" fill="#3E01FF"/>
<path d="M14.5274 10.7367C14.5701 10.7366 14.6128 10.7365 14.6567 10.7363C14.6789 10.7365 14.7011 10.7367 14.724 10.737C14.7918 10.7375 14.8595 10.737 14.9273 10.7363C14.97 10.7365 15.0126 10.7366 15.0566 10.7367C15.0958 10.7368 15.135 10.7369 15.1753 10.7371C15.2735 10.7499 15.2735 10.7499 15.336 10.7966C15.4041 10.8939 15.3911 11.0016 15.3731 11.1152C15.3218 11.1874 15.2855 11.2088 15.2071 11.248C15.0703 11.2561 14.9332 11.2541 14.7962 11.2542C14.758 11.2546 14.7198 11.255 14.6805 11.2555C14.6437 11.2555 14.607 11.2556 14.5692 11.2556C14.5355 11.2558 14.5019 11.2559 14.4672 11.2561C14.3751 11.2478 14.3212 11.2319 14.2442 11.1816C14.1924 11.0781 14.1922 10.9623 14.211 10.8496C14.2959 10.7275 14.3861 10.7371 14.5274 10.7367Z" fill="#3E01FF"/>
</g>
<defs>
<clipPath id="clip0_385_230">
<rect width="17" height="12" fill="white"/>
</clipPath>
</defs>
</svg>
