<svg width="15" height="15" viewBox="0 0 15 15" fill="none" xmlns="http://www.w3.org/2000/svg">
<g clip-path="url(#clip0_78_1447)">
<path d="M0.815974 0.454049C0.851145 0.453794 0.851145 0.453794 0.887026 0.453533C0.966091 0.453103 1.04513 0.453513 1.1242 0.453915C1.18125 0.45378 1.23831 0.453594 1.29536 0.453361C1.45254 0.45287 1.6097 0.453115 1.76688 0.453477C1.93623 0.453741 2.10558 0.453333 2.27493 0.453011C2.60685 0.452489 2.93876 0.452602 3.27068 0.452942C3.54035 0.453206 3.81001 0.453242 4.07968 0.453115C4.13717 0.453088 4.13717 0.453088 4.19583 0.45306C4.27368 0.453023 4.35154 0.452985 4.42939 0.452946C5.13921 0.45261 5.84902 0.452959 6.55883 0.453572C7.2071 0.454129 7.85536 0.454079 8.50363 0.453518C9.23161 0.452891 9.95959 0.452644 10.6876 0.453004C10.7651 0.453042 10.8427 0.453078 10.9203 0.453115C10.9775 0.453142 10.9775 0.453142 11.036 0.45317C11.3054 0.453271 11.5749 0.4531 11.8443 0.452824C12.1725 0.452496 12.5008 0.452583 12.829 0.453209C12.9966 0.453517 13.1641 0.453636 13.3317 0.45325C13.4849 0.452902 13.6382 0.45309 13.7914 0.453716C13.847 0.453847 13.9026 0.453779 13.9582 0.453496C14.0335 0.453142 14.1087 0.453502 14.184 0.454049C14.2168 0.453638 14.2168 0.453638 14.2502 0.453218C14.3446 0.454598 14.4055 0.463454 14.4861 0.513933C14.5484 0.613366 14.5474 0.702283 14.546 0.816035C14.5462 0.839482 14.5463 0.862929 14.5465 0.887087C14.5469 0.966152 14.5465 1.04519 14.5461 1.12426C14.5463 1.18131 14.5464 1.23837 14.5467 1.29542C14.5472 1.4526 14.5469 1.60976 14.5466 1.76694C14.5463 1.93629 14.5467 2.10564 14.547 2.275C14.5475 2.60691 14.5474 2.93882 14.5471 3.27074C14.5468 3.54041 14.5468 3.81007 14.5469 4.07974C14.5469 4.11807 14.547 4.1564 14.547 4.19589C14.547 4.27374 14.547 4.3516 14.5471 4.42945C14.5474 5.13927 14.5471 5.84908 14.5465 6.55889C14.5459 7.20716 14.546 7.85542 14.5465 8.50369C14.5471 9.23167 14.5474 9.95965 14.547 10.6876C14.547 10.7652 14.547 10.8428 14.5469 10.9203C14.5469 10.9776 14.5469 10.9776 14.5469 11.036C14.5468 11.3055 14.5469 11.5749 14.5472 11.8444C14.5475 12.1726 14.5474 12.5008 14.5468 12.829C14.5465 12.9966 14.5464 13.1642 14.5468 13.3318C14.5471 13.485 14.5469 13.6382 14.5463 13.7915C14.5462 13.8471 14.5463 13.9027 14.5465 13.9583C14.5469 14.0335 14.5465 14.1088 14.546 14.1841C14.5463 14.2059 14.5465 14.2277 14.5468 14.2503C14.5454 14.3446 14.5366 14.4056 14.4861 14.4862C14.3867 14.5485 14.2977 14.5475 14.184 14.546C14.1488 14.5463 14.1488 14.5463 14.1129 14.5466C14.0339 14.547 13.9548 14.5466 13.8758 14.5462C13.8187 14.5463 13.7617 14.5465 13.7046 14.5467C13.5474 14.5472 13.3903 14.547 13.2331 14.5466C13.0637 14.5464 12.8944 14.5468 12.725 14.5471C12.3931 14.5476 12.0612 14.5475 11.7293 14.5472C11.4596 14.5469 11.19 14.5469 10.9203 14.547C10.882 14.547 10.8436 14.547 10.8041 14.547C10.7263 14.5471 10.6484 14.5471 10.5706 14.5471C9.86076 14.5475 9.15095 14.5471 8.44114 14.5465C7.79287 14.546 7.14461 14.546 6.49634 14.5466C5.76836 14.5472 5.04038 14.5474 4.3124 14.5471C4.23483 14.5471 4.15726 14.547 4.07968 14.547C4.02243 14.547 4.02243 14.547 3.96401 14.5469C3.69456 14.5468 3.4251 14.547 3.15564 14.5473C2.82743 14.5476 2.49921 14.5475 2.171 14.5469C2.00342 14.5466 1.83585 14.5465 1.66827 14.5468C1.51503 14.5472 1.3618 14.547 1.20855 14.5464C1.15296 14.5462 1.09736 14.5463 1.04177 14.5466C0.96649 14.547 0.891249 14.5466 0.815974 14.546C0.783208 14.5465 0.783208 14.5465 0.749781 14.5469C0.655412 14.5455 0.59445 14.5366 0.513872 14.4862C0.451581 14.3867 0.45256 14.2978 0.453988 14.1841C0.453733 14.1489 0.453733 14.1489 0.453472 14.113C0.453042 14.0339 0.453452 13.9549 0.453854 13.8758C0.453719 13.8188 0.453533 13.7617 0.4533 13.7047C0.452809 13.5475 0.453054 13.3903 0.453416 13.2332C0.45368 13.0638 0.453272 12.8944 0.45295 12.7251C0.452427 12.3932 0.452541 12.0613 0.452881 11.7294C0.453145 11.4597 0.453181 11.19 0.453054 10.9203C0.453036 10.882 0.453018 10.8437 0.452999 10.8042C0.452962 10.7263 0.452924 10.6485 0.452885 10.5706C0.452549 9.86083 0.452898 9.15101 0.453511 8.4412C0.454068 7.79293 0.454018 7.14467 0.453457 6.4964C0.45283 5.76842 0.452583 5.04044 0.452943 4.31247C0.452981 4.23489 0.453017 4.15732 0.453054 4.07974C0.453072 4.04157 0.45309 4.0034 0.453108 3.96407C0.45321 3.69462 0.453039 3.42516 0.452763 3.1557C0.452435 2.82749 0.452522 2.49927 0.453148 2.17106C0.453456 2.00348 0.453575 1.83591 0.453189 1.66833C0.452841 1.51509 0.453029 1.36186 0.453655 1.20861C0.453786 1.15302 0.453718 1.09742 0.453435 1.04183C0.453081 0.966551 0.453441 0.89131 0.453988 0.816035C0.453714 0.794191 0.45344 0.772348 0.453157 0.749842C0.454537 0.655473 0.463393 0.594511 0.513872 0.513933C0.613305 0.451642 0.702222 0.452621 0.815974 0.454049ZM0.937485 0.937546C0.937485 5.2688 0.937485 9.60005 0.937485 14.0625C1.24686 14.0625 1.55624 14.0625 1.87499 14.0625C1.87499 9.7313 1.87499 5.40005 1.87499 0.937546C1.56561 0.937546 1.25624 0.937546 0.937485 0.937546ZM2.34374 0.937546C2.34374 5.2688 2.34374 9.60005 2.34374 14.0625C2.49842 14.0625 2.65311 14.0625 2.81249 14.0625C2.81249 9.7313 2.81249 5.40005 2.81249 0.937546C2.6578 0.937546 2.50311 0.937546 2.34374 0.937546ZM3.28124 0.937546C3.28124 5.2688 3.28124 9.60005 3.28124 14.0625C6.83905 14.0625 10.3969 14.0625 14.0625 14.0625C14.0625 9.7313 14.0625 5.40005 14.0625 0.937546C10.5047 0.937546 6.94686 0.937546 3.28124 0.937546Z" fill="#3E01FF"/>
<path d="M8.37856 2.57223C8.40014 2.57203 8.42172 2.57182 8.44395 2.57161C8.51321 2.5711 8.58247 2.57091 8.65173 2.57086C8.67539 2.57084 8.69906 2.57082 8.72344 2.5708C9.07473 2.57127 9.41294 2.58324 9.75585 2.66608C9.77714 2.67095 9.79843 2.67582 9.82037 2.68084C11.0851 2.97611 12.1921 3.78679 12.8819 4.88303C13.3025 5.57619 13.5945 6.38939 13.5997 7.20675C13.5999 7.22833 13.6001 7.24991 13.6003 7.27214C13.6008 7.3414 13.601 7.41066 13.6011 7.47992C13.6011 7.50358 13.6011 7.52725 13.6011 7.55163C13.6007 7.90303 13.5883 8.24098 13.5059 8.58404C13.5011 8.60502 13.4964 8.626 13.4916 8.64762C13.2839 9.55505 12.8022 10.3528 12.1582 11.0157C12.135 11.0399 12.135 11.0399 12.1113 11.0646C11.9886 11.1907 11.8589 11.3013 11.7187 11.4075C11.697 11.424 11.6754 11.4404 11.653 11.4574C10.8887 12.0283 9.92861 12.4217 8.96518 12.4279C8.9436 12.4281 8.92203 12.4283 8.8998 12.4285C7.7059 12.4374 6.56919 12.1697 5.62499 11.3965C5.6015 11.3774 5.6015 11.3774 5.57753 11.358C4.74246 10.6766 4.13921 9.77234 3.87268 8.7232C3.86697 8.70075 3.86126 8.67829 3.85537 8.65515C3.76368 8.27152 3.73806 7.89269 3.73901 7.50006C3.73901 7.4763 3.73902 7.45254 3.73903 7.42807C3.74003 7.04177 3.76695 6.67368 3.86718 6.29889C3.87282 6.27754 3.87846 6.25619 3.88428 6.2342C4.23167 4.96014 5.05135 3.86938 6.19771 3.20712C6.85885 2.83831 7.61554 2.57712 8.37856 2.57223ZM5.62499 4.2774C5.59701 4.30354 5.56903 4.32967 5.54019 4.3566C5.19733 4.68252 4.93564 5.06044 4.71679 5.47858C4.69904 5.51249 4.68129 5.5464 4.663 5.58134C4.51443 5.87649 4.41892 6.18485 4.33593 6.50397C4.32589 6.54128 4.31584 6.57859 4.30549 6.61703C4.17671 7.19715 4.18261 7.92265 4.33593 8.49615C4.34396 8.52875 4.34396 8.52875 4.35215 8.56201C4.54952 9.35603 4.94772 10.047 5.52497 10.6225C5.56541 10.663 5.60537 10.7041 5.64376 10.7466C6.34844 11.5112 7.48389 11.8935 8.49742 11.9479C9.66239 11.9951 10.8024 11.5677 11.6571 10.781C11.7279 10.714 11.7972 10.646 11.8652 10.5762C11.8812 10.5619 11.8972 10.5476 11.9136 10.5329C12.6001 9.89696 13.0593 8.82085 13.1004 7.89129C13.1173 7.19156 13.1173 7.19156 13.0078 6.50397C12.9998 6.47137 12.9998 6.47137 12.9916 6.43811C12.7788 5.58221 12.3368 4.8927 11.7187 4.2774C11.7033 4.26128 11.6878 4.24516 11.6718 4.22854C11.1677 3.70933 10.4728 3.38698 9.78515 3.19342C9.75014 3.18356 9.71513 3.17371 9.67906 3.16355C8.24481 2.81403 6.68233 3.26156 5.62499 4.2774Z" fill="#3E01FF"/>
<path d="M9.47205 6.30797C9.77202 6.53451 10.0207 6.8235 10.0781 7.20702C10.1169 7.68001 10.0654 8.06133 9.75586 8.43749C9.53259 8.69612 9.24335 8.87818 8.89738 8.91303C8.40979 8.94329 8.05508 8.8543 7.67681 8.53545C7.42401 8.3009 7.27538 7.99955 7.25636 7.65654C7.23997 7.16767 7.34736 6.81648 7.68494 6.45262C8.16234 6.00079 8.92759 5.94662 9.47205 6.30797ZM7.93946 6.91405C7.76483 7.1712 7.74028 7.39629 7.76367 7.70506C7.81961 7.9517 7.95531 8.14993 8.16914 8.28494C8.4521 8.43516 8.68344 8.47236 8.99414 8.37889C9.25051 8.26827 9.43035 8.08582 9.54895 7.83324C9.62724 7.58449 9.61553 7.31094 9.50684 7.07518C9.38409 6.8613 9.21532 6.70327 8.98476 6.61112C8.58926 6.51369 8.20904 6.60732 7.93946 6.91405Z" fill="#3E01FF"/>
<path d="M5.39063 7.5C5.55498 7.5 5.71934 7.5 5.88867 7.5C5.8912 7.53474 5.89373 7.56949 5.89634 7.60529C5.96238 8.40528 6.2767 9.09765 6.88477 9.63867C7.37256 10.0356 7.92323 10.2206 8.54187 10.2727C8.64258 10.2832 8.64258 10.2832 8.67188 10.3125C8.67402 10.3915 8.67458 10.4697 8.67371 10.5487C8.67357 10.5709 8.67344 10.5932 8.67331 10.6161C8.67296 10.6711 8.67243 10.7262 8.67188 10.7813C7.88704 10.8229 7.124 10.5319 6.5332 10.0195C6.49768 9.99036 6.49768 9.99036 6.46145 9.96059C5.89242 9.47732 5.50729 8.75641 5.39646 8.01876C5.38372 7.84556 5.38744 7.67355 5.39063 7.5Z" fill="#3E01FF"/>
<path d="M8.67187 4.2187C9.52536 4.17278 10.2983 4.51584 10.9289 5.07598C11.4799 5.57925 11.8768 6.3121 11.9531 7.0605C11.959 7.20719 11.9558 7.35311 11.9531 7.49995C11.7888 7.49995 11.6244 7.49995 11.4551 7.49995C11.4484 7.41838 11.4418 7.33681 11.4349 7.25276C11.3735 6.63582 11.1475 6.08302 10.7227 5.62495C10.7012 5.60154 10.6798 5.57812 10.6578 5.554C10.1576 5.0301 9.50955 4.78686 8.80188 4.72728C8.70117 4.71675 8.70117 4.71675 8.67187 4.68745C8.66973 4.60845 8.66917 4.53022 8.67004 4.45125C8.67018 4.42902 8.67031 4.4068 8.67044 4.3839C8.67079 4.32883 8.67132 4.27377 8.67187 4.2187Z" fill="#3E01FF"/>
<path d="M6.32814 7.5C6.49249 7.5 6.65685 7.5 6.82618 7.5C6.83283 7.56949 6.83948 7.63898 6.84632 7.71057C6.90425 8.20292 7.13413 8.61925 7.51432 8.93772C7.8269 9.17738 8.19549 9.32304 8.59212 9.34158C8.64259 9.3457 8.64259 9.3457 8.67189 9.375C8.67403 9.454 8.67459 9.53223 8.67372 9.61121C8.67358 9.63343 8.67345 9.65566 8.67332 9.67855C8.67297 9.73362 8.67244 9.78869 8.67189 9.84375C8.09359 9.87886 7.5538 9.66351 7.11915 9.28711C7.09559 9.26928 7.07202 9.25146 7.04774 9.23309C6.66255 8.90897 6.41001 8.36998 6.32814 7.88086C6.32024 7.75197 6.32232 7.6293 6.32814 7.5Z" fill="#3E01FF"/>
<path d="M8.67187 5.15631C9.25017 5.1212 9.78996 5.33655 10.2246 5.71295C10.2478 5.73044 10.2711 5.74792 10.295 5.76594C10.692 6.10084 10.9273 6.61556 11.0156 7.1192C11.0236 7.24811 11.0214 7.37073 11.0156 7.50006C10.8513 7.50006 10.6869 7.50006 10.5176 7.50006C10.5109 7.43601 10.5043 7.37196 10.4974 7.30597C10.4342 6.8056 10.2175 6.38894 9.83002 6.06245C9.50849 5.81734 9.18596 5.70867 8.78883 5.66592C8.70117 5.65436 8.70117 5.65436 8.67187 5.62506C8.66973 5.54606 8.66917 5.46783 8.67004 5.38885C8.67018 5.36663 8.67031 5.3444 8.67044 5.32151C8.67079 5.26644 8.67132 5.21137 8.67187 5.15631Z" fill="#3E01FF"/>
<path d="M13.3008 1.99219C13.3332 2.01969 13.3656 2.04724 13.3979 2.07481C13.425 2.09782 13.425 2.09782 13.4526 2.12129C13.5226 2.18266 13.5875 2.24765 13.6523 2.31445C13.6134 2.40096 13.571 2.46163 13.5037 2.52831C13.4855 2.54649 13.4674 2.56466 13.4486 2.58339C13.4291 2.60265 13.4095 2.62191 13.3894 2.64175C13.3592 2.67174 13.3592 2.67174 13.3285 2.70234C13.2645 2.76605 13.2002 2.82956 13.136 2.89307C13.0925 2.93627 13.049 2.97949 13.0055 3.02273C12.899 3.12859 12.7923 3.23426 12.6855 3.33984C12.5791 3.29016 12.5114 3.23033 12.4292 3.14575C12.4058 3.12181 12.3824 3.09787 12.3582 3.0732C12.3406 3.05484 12.3229 3.03649 12.3047 3.01758C12.4227 2.87599 12.5462 2.74274 12.6771 2.61303C12.704 2.58615 12.704 2.58615 12.7315 2.55873C12.7881 2.50226 12.8449 2.44589 12.9016 2.38953C12.9403 2.35095 12.9791 2.31236 13.0178 2.27377C13.112 2.17983 13.2064 2.08598 13.3008 1.99219Z" fill="#3E01FF"/>
<path d="M12.627 1.34766C12.7334 1.39734 12.8011 1.45717 12.8833 1.54175C12.9067 1.56569 12.9301 1.58963 12.9543 1.6143C12.9719 1.63266 12.9896 1.65101 13.0078 1.66992C12.8898 1.81151 12.7663 1.94476 12.6354 2.07447C12.6175 2.09239 12.5995 2.11031 12.581 2.12877C12.5244 2.18524 12.4676 2.24161 12.4109 2.29797C12.3722 2.33655 12.3334 2.37514 12.2947 2.41373C12.2005 2.50767 12.1061 2.60152 12.0117 2.69531C11.9793 2.66781 11.9469 2.64026 11.9146 2.61269C11.8875 2.58968 11.8875 2.58968 11.8599 2.56621C11.7899 2.50484 11.725 2.43985 11.6602 2.37305C11.6991 2.28654 11.7415 2.22587 11.8088 2.15919C11.827 2.14101 11.8451 2.12284 11.8639 2.10411C11.8834 2.08485 11.903 2.06559 11.9231 2.04575C11.9432 2.02575 11.9633 2.00576 11.984 1.98516C12.048 1.92145 12.1123 1.85794 12.1765 1.79443C12.22 1.75123 12.2635 1.70801 12.307 1.66477C12.4135 1.55891 12.5202 1.45324 12.627 1.34766Z" fill="#3E01FF"/>
</g>
<defs>
<clipPath id="clip0_78_1447">
<rect width="15" height="15" fill="white"/>
</clipPath>
</defs>
</svg>
