<svg width="102" height="101" viewBox="0 0 102 101" fill="none" xmlns="http://www.w3.org/2000/svg">
<path d="M10.97 9.57V3.01H12.15V9.57H13.12V10H10V9.57H10.97ZM14.0852 9.57V3.01H15.2652L19.3252 8.23V3.01H20.5052V9.57H21.4752V10H19.2252L15.2652 4.9V10H13.1152V9.57H14.0852ZM27.5146 9.57V10H21.4746V9.57H23.9046V4.09H21.7846V3.01H27.2046V4.09H25.0846V9.57H27.5146ZM28.4798 9.57V3.01H33.3898V4.12H29.6598V5.97H33.0098V7.02H29.6598V8.89H33.5098V9.57H34.4798V10H27.5098V9.57H28.4798ZM41.5827 9.57V10H39.4227L37.7527 7.65H36.2027V10H34.0527V9.57H35.0227V3.01H37.6227C38.6894 3.01 39.4527 3.19 39.9127 3.55C40.3727 3.91 40.6027 4.48667 40.6027 5.28C40.6027 6.43333 40.0994 7.16 39.0927 7.46L40.6127 9.57H41.5827ZM37.6727 6.58C38.3394 6.58 38.7927 6.47667 39.0327 6.27C39.2727 6.06333 39.3927 5.73333 39.3927 5.28C39.3927 4.82 39.2694 4.50667 39.0227 4.34C38.7761 4.16667 38.3361 4.08 37.7027 4.08H36.2027V6.58H37.6727ZM47.6281 9.57V10H41.3281V9.57H42.6081C42.2881 9.40333 41.9948 9.19667 41.7281 8.95L42.4681 8.06C43.1748 8.67333 43.9081 8.98 44.6681 8.98C45.0481 8.98 45.3481 8.9 45.5681 8.74C45.7948 8.57333 45.9081 8.35667 45.9081 8.09C45.9081 7.81667 45.8015 7.60667 45.5881 7.46C45.3815 7.30667 45.0215 7.17 44.5081 7.05C43.9948 6.92333 43.6048 6.81 43.3381 6.71C43.0715 6.60333 42.8348 6.46667 42.6281 6.3C42.2148 5.98667 42.0081 5.50667 42.0081 4.86C42.0081 4.21333 42.2415 3.71667 42.7081 3.37C43.1815 3.01667 43.7648 2.84 44.4581 2.84C44.9048 2.84 45.3481 2.91333 45.7881 3.06C46.2281 3.20667 46.6081 3.41333 46.9281 3.68L46.2981 4.57C46.0915 4.38333 45.8115 4.23 45.4581 4.11C45.1048 3.99 44.7548 3.93 44.4081 3.93C44.0681 3.93 43.7881 4 43.5681 4.14C43.3481 4.28 43.2381 4.49333 43.2381 4.78C43.2381 5.06 43.3481 5.27667 43.5681 5.43C43.7881 5.57667 44.2548 5.73667 44.9681 5.91C45.6881 6.08333 46.2281 6.32667 46.5881 6.64C46.9548 6.95333 47.1381 7.39333 47.1381 7.96C47.1381 8.64667 46.8848 9.18333 46.3781 9.57H47.6281ZM53.667 9.57V10H47.627V9.57H50.057V4.09H47.937V3.01H53.357V4.09H51.237V9.57H53.667ZM54.6321 9.57V3.01H59.5421V4.12H55.8121V5.97H59.1621V7.02H55.8121V8.89H59.6621V9.57H60.6321V10H53.6621V9.57H54.6321ZM66.5151 9.57V10H60.2051V9.57H61.1751V3.01H62.3551V8.88H65.5451V9.57H66.5151ZM72.1791 9.57V10H65.8691V9.57H66.8391V3.01H68.0191V8.88H71.2091V9.57H72.1791ZM79.9232 9.57V10H77.6932L76.9932 8.41H73.4932L72.7932 10H70.5632V9.57H71.7232L74.6132 3.01H75.8732L78.7632 9.57H79.9232ZM76.5132 7.32L75.2432 4.44L73.9732 7.32H76.5132ZM86.4851 9.57V10H84.3251L82.6551 7.65H81.1051V10H78.9551V9.57H79.9251V3.01H82.5251C83.5917 3.01 84.3551 3.19 84.8151 3.55C85.2751 3.91 85.5051 4.48667 85.5051 5.28C85.5051 6.43333 85.0017 7.16 83.9951 7.46L85.5151 9.57H86.4851ZM82.5751 6.58C83.2417 6.58 83.6951 6.47667 83.9351 6.27C84.1751 6.06333 84.2951 5.73333 84.2951 5.28C84.2951 4.82 84.1717 4.50667 83.9251 4.34C83.6784 4.16667 83.2384 4.08 82.6051 4.08H81.1051V6.58H82.5751Z" fill="white"/>
<path d="M28.53 89.57V90H26.37L24.7 87.65H23.15V90H21V89.57H21.97V83.01H24.57C25.6367 83.01 26.4 83.19 26.86 83.55C27.32 83.91 27.55 84.4867 27.55 85.28C27.55 86.4333 27.0467 87.16 26.04 87.46L27.56 89.57H28.53ZM24.62 86.58C25.2867 86.58 25.74 86.4767 25.98 86.27C26.22 86.0633 26.34 85.7333 26.34 85.28C26.34 84.82 26.2167 84.5067 25.97 84.34C25.7233 84.1667 25.2833 84.08 24.65 84.08H23.15V86.58H24.62ZM29.2454 89.57V83.01H34.1554V84.12H30.4254V85.97H33.7754V87.02H30.4254V88.89H34.2754V89.57H35.2454V90H28.2754V89.57H29.2454ZM42.1784 89.57V90H34.8184V89.57H37.0384C36.5117 89.2567 36.095 88.83 35.7884 88.29C35.4884 87.75 35.3384 87.14 35.3384 86.46C35.3384 85.4333 35.6917 84.5733 36.3984 83.88C37.1117 83.1867 38.0084 82.84 39.0884 82.84C40.175 82.84 41.0817 83.24 41.8084 84.04L41.0584 84.86C40.725 84.54 40.4084 84.3167 40.1084 84.19C39.815 84.0633 39.4684 84 39.0684 84C38.3617 84 37.7684 84.23 37.2884 84.69C36.8084 85.1433 36.5684 85.7267 36.5684 86.44C36.5684 87.1467 36.805 87.74 37.2784 88.22C37.7584 88.6933 38.325 88.93 38.9784 88.93C39.385 88.93 39.735 88.8633 40.0284 88.73C40.3217 88.59 40.6284 88.37 40.9484 88.07L41.7084 88.85C41.415 89.17 41.135 89.41 40.8684 89.57H42.1784ZM50.5816 89.57V90H42.1816V89.57H44.4716C43.925 89.2567 43.4916 88.8267 43.1716 88.28C42.8583 87.7333 42.7016 87.1233 42.7016 86.45C42.7016 85.4233 43.055 84.5667 43.7616 83.88C44.4683 83.1867 45.3416 82.84 46.3816 82.84C47.4216 82.84 48.295 83.1867 49.0016 83.88C49.7083 84.5667 50.0616 85.4233 50.0616 86.45C50.0616 87.1167 49.9016 87.7267 49.5816 88.28C49.2683 88.8333 48.8383 89.2633 48.2916 89.57H50.5816ZM48.1316 84.66C47.6583 84.1667 47.075 83.92 46.3816 83.92C45.6883 83.92 45.1016 84.1667 44.6216 84.66C44.1483 85.1533 43.9116 85.7533 43.9116 86.46C43.9116 87.16 44.1483 87.7567 44.6216 88.25C45.1016 88.7433 45.6883 88.99 46.3816 88.99C47.075 88.99 47.6583 88.7433 48.1316 88.25C48.6116 87.7567 48.8516 87.16 48.8516 86.46C48.8516 85.7533 48.6116 85.1533 48.1316 84.66ZM58.1101 89.57V90H55.9501L54.2801 87.65H52.7301V90H50.5801V89.57H51.5501V83.01H54.1501C55.2167 83.01 55.9801 83.19 56.4401 83.55C56.9001 83.91 57.1301 84.4867 57.1301 85.28C57.1301 86.4333 56.6267 87.16 55.6201 87.46L57.1401 89.57H58.1101ZM54.2001 86.58C54.8667 86.58 55.3201 86.4767 55.5601 86.27C55.8001 86.0633 55.9201 85.7333 55.9201 85.28C55.9201 84.82 55.7967 84.5067 55.5501 84.34C55.3034 84.1667 54.8634 84.08 54.2301 84.08H52.7301V86.58H54.2001ZM65.6755 89.57V90H57.8555V89.57H58.8255V83.01H61.2255C62.4788 83.01 63.4421 83.3167 64.1155 83.93C64.7888 84.5367 65.1255 85.3933 65.1255 86.5C65.1255 87.9867 64.5388 89.01 63.3655 89.57H65.6755ZM63.9355 86.5C63.9355 84.9 63.0188 84.1 61.1855 84.1H60.0055V88.89H61.3155C62.1621 88.89 62.8088 88.69 63.2555 88.29C63.7088 87.8833 63.9355 87.2867 63.9355 86.5ZM71.9777 89.57V90H65.6777V89.57H66.9577C66.6377 89.4033 66.3444 89.1967 66.0777 88.95L66.8177 88.06C67.5244 88.6733 68.2577 88.98 69.0177 88.98C69.3977 88.98 69.6977 88.9 69.9177 88.74C70.1444 88.5733 70.2577 88.3567 70.2577 88.09C70.2577 87.8167 70.1511 87.6067 69.9377 87.46C69.7311 87.3067 69.3711 87.17 68.8577 87.05C68.3444 86.9233 67.9544 86.81 67.6877 86.71C67.4211 86.6033 67.1844 86.4667 66.9777 86.3C66.5644 85.9867 66.3577 85.5067 66.3577 84.86C66.3577 84.2133 66.5911 83.7167 67.0577 83.37C67.5311 83.0167 68.1144 82.84 68.8077 82.84C69.2544 82.84 69.6977 82.9133 70.1377 83.06C70.5777 83.2067 70.9577 83.4133 71.2777 83.68L70.6477 84.57C70.4411 84.3833 70.1611 84.23 69.8077 84.11C69.4544 83.99 69.1044 83.93 68.7577 83.93C68.4177 83.93 68.1377 84 67.9177 84.14C67.6977 84.28 67.5877 84.4933 67.5877 84.78C67.5877 85.06 67.6977 85.2767 67.9177 85.43C68.1377 85.5767 68.6044 85.7367 69.3177 85.91C70.0377 86.0833 70.5777 86.3267 70.9377 86.64C71.3044 86.9533 71.4877 87.3933 71.4877 87.96C71.4877 88.6467 71.2344 89.1833 70.7277 89.57H71.9777Z" fill="white"/>
<path fill-rule="evenodd" clip-rule="evenodd" d="M1.3 1.3H91.7V27.1951C91.9222 27.0729 92.1466 27 92.3502 27C92.5833 27 92.8039 27.0953 93 27.2508V1.3V0H91.7H1.3H0V1.3V91.7V93H1.3H91.7H93V91.7V52.4933C92.8297 53.4587 92.6278 54.4613 92.3907 55.5022C92.1389 55.7855 91.9092 55.954 91.7 56.0196V91.7H1.3V1.3ZM93 35.7056V29.2699C91.778 29.9028 92.0751 31.2983 92.6244 33.8785C92.7422 34.4317 92.8715 35.0394 93 35.7056Z" fill="white"/>
<path fill-rule="evenodd" clip-rule="evenodd" d="M87.4922 41.7189C86.5999 43.8537 85.4009 46.039 83.9075 48.2394C78.5693 56.1045 69.6259 63.8903 58.3142 69.6552C47.0026 75.4202 35.5788 78.0145 26.2874 77.6052C16.9477 77.1939 10.0705 73.7858 7.26501 67.9139C4.45956 62.0419 6.02459 54.3312 11.3905 46.4252C16.7286 38.5601 25.6721 30.7744 36.9837 25.0094C48.2954 19.2445 59.7191 16.6502 69.0105 17.0594C73.6119 17.2621 77.6156 18.1921 80.8292 19.7858C81.0733 19.3658 81.4047 19.0242 81.7919 18.799C71.4894 13.4356 53.7616 15 36.4233 23.8364C13.4801 35.5293 -0.0930208 55.5277 6.10676 68.5042C12.3065 81.4806 35.9315 82.5211 58.8747 70.8282C72.5677 63.8496 82.9232 53.9125 87.7295 44.2755C87.6023 43.8144 87.5177 42.9902 87.4922 41.7189ZM89.0008 25.7764C88.3792 24.5666 87.6021 23.4645 86.6849 22.4708C87.494 23.5564 88.307 24.7235 89.0008 25.7764Z" fill="white"/>
<path d="M58.5988 41.7518C59.3379 43.2986 58.9643 45.3637 57.5149 47.5342C56.0768 49.6879 53.6461 51.8267 50.5501 53.4046C47.4542 54.9825 44.3318 55.6737 41.802 55.5423C39.2523 55.4099 37.4381 54.4597 36.6991 52.9129C35.9601 51.366 36.3336 49.301 37.783 47.1304C39.2211 44.9768 41.6518 42.8379 44.7478 41.26C47.8438 39.6822 50.9662 38.9909 53.4959 39.1223C56.0457 39.2548 57.8598 40.2049 58.5988 41.7518Z" stroke="white" stroke-width="1.2"/>
<path d="M49.5545 46.3612C49.6459 46.5525 49.6369 46.8607 49.3904 47.2595C49.1488 47.6503 48.7156 48.055 48.1355 48.3506C47.5554 48.6463 46.9808 48.7552 46.5335 48.7155C46.0771 48.6749 45.8348 48.4948 45.7434 48.3035C45.652 48.1121 45.6609 47.804 45.9075 47.4052C46.149 47.0143 46.5823 46.6096 47.1624 46.314C47.7425 46.0183 48.3171 45.9094 48.7644 45.9491C49.2208 45.9897 49.4631 46.1698 49.5545 46.3612Z" stroke="white"/>
<path d="M69.7589 28.9316C68.8544 28.7199 67.9938 28.5528 67.2279 28.4222C67.9016 28.2781 68.6484 28.1047 69.432 27.9C72.3433 27.1395 75.8597 25.9227 77.9898 24.1009C79.0899 23.1601 79.9692 21.7267 80.6725 20.1561C81.3794 18.5773 81.9274 16.8161 82.3438 15.1778C82.621 14.0872 82.8412 13.046 83.0117 12.142C83.1831 13.0444 83.3995 14.0838 83.6635 15.1725C84.0599 16.8075 84.5657 18.5633 85.1906 20.1363C85.8114 21.6989 86.5676 23.1279 87.4853 24.0698C88.4045 25.0132 89.7881 25.7787 91.2966 26.3991C92.8145 27.0234 94.5044 27.5189 96.0756 27.902C96.9134 28.1063 97.7203 28.2793 98.4534 28.4232C97.7095 28.5428 96.8899 28.6936 96.039 28.8824C94.4517 29.2346 92.7427 29.7219 91.2078 30.3922C89.6798 31.0596 88.2822 31.9263 87.3618 33.0598C85.5871 35.2456 84.3798 39.004 83.6169 42.1361C83.4159 42.9611 83.2442 43.75 83.1 44.4653C82.992 43.7675 82.8566 43.0007 82.6878 42.1993C82.0312 39.0828 80.8456 35.3225 78.7016 33.122C76.5569 30.9209 72.8431 29.6537 69.7589 28.9316Z" stroke="white"/>
<path d="M74.8253 43.7117C75.5458 44.0165 76.3418 44.258 77.0803 44.4449C76.3284 44.6182 75.5147 44.858 74.7778 45.189C74.0355 45.5224 73.3303 45.9663 72.8576 46.5652C72.0063 47.6435 71.4344 49.4415 71.0712 50.938C70.7518 49.4517 70.1839 47.6615 69.1572 46.5778C68.0846 45.4456 66.2572 44.8144 64.791 44.4614C64.7604 44.454 64.7299 44.4467 64.6996 44.4396C66.0716 44.067 67.7587 43.4658 68.8031 42.5471C69.3662 42.0518 69.801 41.3133 70.1398 40.535C70.4823 39.7483 70.7459 38.8755 70.945 38.0697C70.965 37.9886 70.9844 37.9082 71.0032 37.8284C71.0209 37.9065 71.0391 37.9852 71.0578 38.0644C71.247 38.8671 71.4897 39.7346 71.7914 40.5156C72.0889 41.2859 72.4615 42.0197 72.9313 42.5156C73.4034 43.014 74.0981 43.4041 74.8253 43.7117Z" stroke="white"/>
<path d="M28.5 78.5C89.3 78.5 91.7144 50.6667 85.381 37" stroke="white"/>
<path d="M27.8392 78.5034C96.881 83.5 98.7146 46.5 91.8813 30.5" stroke="white"/>
<path d="M23.381 44C26.7144 39 39.381 27 57.381 25.5" stroke="white" stroke-width="0.8" stroke-linecap="round"/>
<path d="M34.381 41C36.2144 39 40.881 34 50.381 32.5" stroke="white" stroke-width="0.8" stroke-linecap="round"/>
<path d="M31.8093 69.5686C39.3858 70.6157 56.4265 65.7841 66.934 53.932" stroke="white" stroke-width="0.8" stroke-linecap="round"/>
<line x1="10.0312" y1="9.78653" x2="6.03125" y2="9.78653" stroke="white" stroke-width="0.43"/>
<line x1="21" y1="89.7806" x2="17" y2="89.7805" stroke="white" stroke-width="0.43"/>
<line x1="75.8145" y1="89.7806" x2="71.8145" y2="89.7805" stroke="white" stroke-width="0.43"/>
<line x1="89.7626" y1="9.78653" x2="85.7626" y2="9.78653" stroke="white" stroke-width="0.43"/>
</svg>
