<svg width="15" height="15" viewBox="0 0 15 15" fill="none" xmlns="http://www.w3.org/2000/svg">
<g clip-path="url(#clip0_78_1457)">
<path d="M7.489 -0.00917109C7.51883 -0.00910795 7.54866 -0.00904482 7.57939 -0.00897976C8.00784 -0.00752362 8.42659 0.00168106 8.84764 0.0878748C8.87684 0.0935396 8.90603 0.0992045 8.93612 0.105041C10.3541 0.385227 11.6489 1.042 12.6855 2.05077C12.7149 2.07904 12.7149 2.07904 12.7449 2.10789C13.0068 2.36026 13.2529 2.61541 13.4685 2.90863C13.5065 2.95986 13.5455 3.01019 13.5847 3.06048C13.8151 3.35974 14.0022 3.68076 14.1797 4.01366C14.1991 4.05 14.1991 4.05 14.2189 4.08708C14.5563 4.72878 14.7811 5.44043 14.9121 6.15233C14.9168 6.17579 14.9215 6.19924 14.9264 6.22341C15.0873 7.046 15.0801 8.02703 14.9121 8.84764C14.9064 8.87684 14.9008 8.90604 14.8949 8.93612C14.6571 10.1399 14.1482 11.2266 13.3887 12.1875C13.3649 12.2179 13.3411 12.2483 13.3166 12.2796C12.9455 12.7355 12.5192 13.1631 12.041 13.5058C12.0016 13.5348 11.9622 13.5638 11.9228 13.5928C10.8923 14.3432 9.70195 14.8084 8.43748 14.9707C8.41794 14.9732 8.39839 14.9758 8.37825 14.9784C8.21078 14.9988 8.04557 15.0051 7.87695 15.0059C7.84923 15.0061 7.8215 15.0063 7.79294 15.0066C6.64611 15.0132 6.64611 15.0132 6.15233 14.9121C6.10853 14.9036 6.10853 14.9036 6.06385 14.8949C4.86008 14.6571 3.77333 14.1482 2.81248 13.3887C2.78208 13.3649 2.75168 13.3411 2.72036 13.3166C2.2643 12.9454 1.83755 12.5189 1.49412 12.041C1.46882 12.0067 1.44349 11.9725 1.41814 11.9382C0.974484 11.334 0.620515 10.6716 0.380844 9.96092C0.368742 9.92511 0.368742 9.92511 0.356396 9.88857C0.26153 9.60231 0.187342 9.31281 0.124496 9.01793C0.118673 8.99084 0.11285 8.96375 0.106851 8.93584C0.0103849 8.46104 -0.011011 7.99421 -0.00917109 7.51097C-0.00910795 7.48114 -0.00904482 7.45131 -0.00897976 7.42057C-0.00752362 6.99213 0.00168106 6.57338 0.0878748 6.15233C0.096372 6.10853 0.096372 6.10853 0.105041 6.06385C0.328537 4.93275 0.788873 3.87357 1.49412 2.95897C1.51297 2.9345 1.53181 2.91002 1.55123 2.88481C1.9644 2.35881 2.44352 1.85525 2.98826 1.46483C3.00414 1.45335 3.02001 1.44187 3.03636 1.43004C3.65219 0.986142 4.3191 0.623648 5.03905 0.380844C5.07486 0.368742 5.07486 0.368742 5.1114 0.356396C5.39766 0.26153 5.68716 0.187342 5.98204 0.124496C6.00913 0.118673 6.03622 0.11285 6.06413 0.106851C6.53893 0.0103849 7.00576 -0.011011 7.489 -0.00917109ZM2.78319 2.31444C2.74242 2.34999 2.70153 2.38539 2.66051 2.42064C2.4701 2.58744 2.30601 2.76557 2.14758 2.9632C2.10522 3.01568 2.06214 3.06759 2.01803 3.11861C1.4909 3.73361 1.10811 4.48025 0.849593 5.24412C0.841526 5.26769 0.833458 5.29126 0.825146 5.31554C0.628478 5.89973 0.495169 6.52369 0.49208 7.14156C0.491913 7.16834 0.491746 7.19512 0.491574 7.22271C0.491299 7.27924 0.491106 7.33577 0.490993 7.3923C0.490712 7.47657 0.489802 7.56082 0.488876 7.6451C0.485981 8.14709 0.543419 8.63464 0.664657 9.1223C0.675923 9.16793 0.675923 9.16793 0.687416 9.21448C0.928972 10.1623 1.35382 11.0403 1.96287 11.8066C1.98349 11.8329 2.00411 11.8591 2.02536 11.8862C3.18614 13.3361 4.87533 14.2677 6.72133 14.4891C7.68789 14.5898 8.65255 14.4998 9.58006 14.209C9.60407 14.2016 9.62808 14.1943 9.65282 14.1867C10.4372 13.9433 11.1644 13.5471 11.8066 13.0371C11.8322 13.0172 11.8578 12.9972 11.8841 12.9767C12.9329 12.1413 13.7204 11.0264 14.1504 9.75584C14.1584 9.73228 14.1665 9.70871 14.1748 9.68443C14.3738 9.09339 14.5044 8.46501 14.5079 7.8401C14.5082 7.80237 14.5082 7.80237 14.5085 7.76387C14.5162 6.99766 14.5162 6.99766 14.414 6.24022C14.4082 6.21179 14.4024 6.18336 14.3964 6.15407C14.1693 5.06927 13.7285 4.0633 13.0371 3.19334C13.0165 3.1671 12.9959 3.14085 12.9746 3.11381C11.8001 1.64674 10.1065 0.729466 8.24202 0.508216C6.25913 0.301083 4.24442 0.953248 2.78319 2.31444Z" fill="#3E01FF"/>
<path d="M8.43752 4.5703C8.45593 4.57642 8.47433 4.58254 8.4933 4.58885C8.95224 4.74463 9.32513 4.99322 9.66799 5.33202C9.68895 5.35086 9.70991 5.36971 9.7315 5.38912C10.1928 5.81361 10.5172 6.53008 10.5521 7.15327C10.568 8.03294 10.568 8.03294 10.4297 8.43749C10.4236 8.45589 10.4175 8.4743 10.4112 8.49326C10.2554 8.9522 10.0068 9.32509 9.66799 9.66795C9.64914 9.68891 9.6303 9.70987 9.61088 9.73147C9.18087 10.1988 8.45532 10.5237 7.82417 10.5505C6.84293 10.5736 6.06262 10.3669 5.33745 9.68459C4.82457 9.18814 4.45925 8.47019 4.44616 7.74752C4.44032 7.33967 4.43706 6.95234 4.57033 6.56249C4.57646 6.54408 4.58258 6.52567 4.58889 6.50671C4.74467 6.04777 4.99326 5.67488 5.33205 5.33202C5.3509 5.31106 5.36974 5.2901 5.38916 5.2685C6.11503 4.47965 7.44639 4.23148 8.43752 4.5703ZM5.74221 5.62499C5.7237 5.64111 5.7052 5.65724 5.68613 5.67385C5.2464 6.08046 4.96853 6.70917 4.94009 7.30166C4.91974 8.04236 5.10657 8.66531 5.59572 9.2285C5.61464 9.25037 5.63356 9.27223 5.65306 9.29476C6.10301 9.77692 6.77099 10.0494 7.42323 10.079C8.11708 10.073 8.74259 9.84315 9.25783 9.37499C9.27634 9.35886 9.29484 9.34273 9.31391 9.32612C9.75364 8.91952 10.0315 8.2908 10.0599 7.69831C10.0803 6.95761 9.89347 6.33466 9.40432 5.77147C9.3854 5.7496 9.36648 5.72774 9.34698 5.70521C8.89704 5.22306 8.22905 4.95056 7.57681 4.92095C6.88296 4.92693 6.25745 5.15682 5.74221 5.62499Z" fill="#3E01FF"/>
<path d="M12.8896 7.22278C12.9851 7.24441 13.0117 7.27098 13.0664 7.35347C13.0846 7.46343 13.083 7.57184 13.0811 7.68306C13.0807 7.71555 13.0803 7.74803 13.08 7.7815C13.0489 9.11046 12.4633 10.3689 11.5723 11.3378C11.5576 11.3538 11.5429 11.3698 11.5278 11.3863C11.1409 11.8028 10.5009 12.4088 9.92592 12.5224C9.83002 12.5226 9.76527 12.5154 9.68262 12.4658C9.6298 12.3777 9.62468 12.3176 9.62311 12.2168C9.65567 12.0942 9.75086 12.0439 9.85542 11.9821C9.8942 11.9614 9.93304 11.9407 9.97192 11.9201C11.1522 11.273 11.9961 10.1795 12.3724 8.89156C12.4836 8.4923 12.546 8.09147 12.5573 7.67714C12.5618 7.54138 12.5794 7.42243 12.627 7.29488C12.7211 7.2321 12.7785 7.22749 12.8896 7.22278Z" fill="#3E01FF"/>
<path d="M5.24411 2.49018C5.31736 2.53413 5.31736 2.53413 5.3613 2.60737C5.37732 2.68881 5.38268 2.76124 5.3613 2.84174C5.27209 2.95492 5.15312 3.0136 5.02805 3.07978C3.87409 3.71248 3.03377 4.7761 2.65024 6.03212C2.5275 6.45412 2.45383 6.87122 2.44268 7.31085C2.43834 7.45192 2.4231 7.57232 2.37302 7.70503C2.27885 7.76781 2.22143 7.77242 2.11038 7.77712C2.01489 7.7555 1.98828 7.72892 1.93357 7.64643C1.91535 7.53647 1.91698 7.42806 1.91892 7.31684C1.91927 7.28436 1.91963 7.25187 1.91999 7.2184C1.95419 5.75461 2.65763 4.3887 3.69756 3.38316C4.05446 3.04876 4.72795 2.4319 5.24411 2.49018Z" fill="#3E01FF"/>
<path d="M7.89733 6.73826C8.10901 6.86441 8.23752 7.03511 8.32031 7.2656C8.35389 7.54014 8.34705 7.80053 8.17382 8.02732C8.01955 8.19708 7.85447 8.3056 7.6221 8.33402C7.34173 8.33622 7.12743 8.31446 6.91245 8.1191C6.72266 7.91671 6.66306 7.71976 6.66561 7.44339C6.67437 7.1937 6.75948 7.02627 6.93969 6.85728C7.19706 6.63814 7.59078 6.59909 7.89733 6.73826ZM7.20703 7.32419C7.15973 7.41878 7.16028 7.51492 7.17773 7.61716C7.22859 7.70579 7.29011 7.77589 7.38281 7.82224C7.53291 7.84003 7.53291 7.84003 7.67063 7.79157C7.78205 7.69984 7.81894 7.65038 7.83325 7.5073C7.83253 7.40914 7.81511 7.35792 7.75268 7.28208C7.64927 7.18113 7.58998 7.16612 7.44449 7.16718C7.33546 7.18579 7.28311 7.24626 7.20703 7.32419Z" fill="#3E01FF"/>
<path d="M11.6895 7.93949C11.7745 7.99049 11.8247 8.024 11.8575 8.11905C11.868 8.23295 11.8453 8.33469 11.8195 8.44486C11.8141 8.46803 11.8088 8.49119 11.8032 8.51506C11.6374 9.20419 11.2872 10.0576 10.7227 10.5176C10.5237 10.5658 10.5237 10.5658 10.4022 10.5011C10.3283 10.4137 10.3125 10.3682 10.3125 10.2539C10.3524 10.1344 10.4179 10.0579 10.5029 9.9683C10.9458 9.48304 11.2233 8.80612 11.3379 8.16471C11.3672 8.05668 11.3672 8.05668 11.4331 7.9816C11.5303 7.9308 11.5813 7.92146 11.6895 7.93949Z" fill="#3E01FF"/>
<path d="M4.5996 4.48237C4.67635 4.53097 4.68595 4.56531 4.71312 4.65265C4.71853 4.79059 4.67519 4.87122 4.58209 4.97297C4.5637 4.99235 4.5453 5.01172 4.52636 5.03168C4.08351 5.51694 3.80601 6.19386 3.69139 6.83527C3.6621 6.9433 3.6621 6.9433 3.59618 7.01838C3.499 7.06918 3.44803 7.07852 3.33983 7.06049C3.25483 7.00949 3.20462 6.97598 3.17183 6.88093C3.16129 6.76703 3.18396 6.66529 3.20983 6.55512C3.21518 6.53195 3.22053 6.50879 3.22605 6.48492C3.3945 5.78481 3.74541 4.95973 4.30663 4.48237C4.4171 4.44554 4.48647 4.45812 4.5996 4.48237Z" fill="#3E01FF"/>
</g>
<defs>
<clipPath id="clip0_78_1457">
<rect width="15" height="15" fill="white"/>
</clipPath>
</defs>
</svg>
